<svg width="32" height="32" viewBox="0 0 32 32" fill="none" xmlns="http://www.w3.org/2000/svg">
  <rect width="32" height="32" rx="2" fill="#2362A2"/>
  <path d="M27 16L24.56 13.21L24.9 9.52L21.29 8.7L19.4 5.5L16 6.96L12.6 5.5L10.71 8.69L7.1 9.5L7.44 13.2L5 16L7.44 18.79L7.1 22.49L10.71 23.31L12.6 26.5L16 25.03L19.4 26.49L21.29 23.3L24.9 22.48L24.56 18.79L27 16ZM13.38 20.01L11 17.61C10.9073 17.5175 10.8337 17.4076 10.7836 17.2866C10.7334 17.1657 10.7076 17.036 10.7076 16.905C10.7076 16.774 10.7334 16.6443 10.7836 16.5234C10.8337 16.4024 10.9073 16.2925 11 16.2L11.07 16.13C11.46 15.74 12.1 15.74 12.49 16.13L14.1 17.75L19.25 12.59C19.64 12.2 20.28 12.2 20.67 12.59L20.74 12.66C21.13 13.05 21.13 13.68 20.74 14.07L14.82 20.01C14.41 20.4 13.78 20.4 13.38 20.01Z" fill="white"/>
</svg>