<svg width="28" height="28" viewBox="0 0 28 28" fill="none" xmlns="http://www.w3.org/2000/svg">
  <path d="M10.8282 14C10.8282 14.8122 11.1508 15.5912 11.7251 16.1655C12.2995 16.7398 13.0784 17.0625 13.8907 17.0625C14.7029 17.0625 15.4818 16.7398 16.0562 16.1655C16.6305 15.5912 16.9532 14.8122 16.9532 14C16.9532 13.1878 16.6305 12.4088 16.0562 11.8345C15.4818 11.2602 14.7029 10.9375 13.8907 10.9375C13.0784 10.9375 12.2995 11.2602 11.7251 11.8345C11.1508 12.4088 10.8282 13.1878 10.8282 14ZM25.7633 13.2945C23.1711 7.83398 19.2528 5.08594 14 5.08594C8.74457 5.08594 4.82894 7.83398 2.23675 13.2973C2.13278 13.5174 2.07886 13.7579 2.07886 14.0014C2.07886 14.2448 2.13278 14.4853 2.23675 14.7055C4.82894 20.166 8.7473 22.9141 14 22.9141C19.2555 22.9141 23.1711 20.166 25.7633 14.7027C25.9739 14.2598 25.9739 13.7457 25.7633 13.2945ZM13.8907 18.8125C11.2328 18.8125 9.07816 16.6578 9.07816 14C9.07816 11.3422 11.2328 9.1875 13.8907 9.1875C16.5485 9.1875 18.7032 11.3422 18.7032 14C18.7032 16.6578 16.5485 18.8125 13.8907 18.8125Z" fill="#B9B9C2"/>
</svg>