<svg width="32" height="32" viewBox="0 0 32 32" fill="none" xmlns="http://www.w3.org/2000/svg">
  <rect width="32" height="32" rx="2" fill="#3A3A3A"/>
  <path d="M17.4464 7.037C17.7386 7.037 17.8221 7.20398 17.8639 7.32922V7.37097V7.41271C17.8639 7.4962 17.8639 7.62144 17.8221 7.66319L17.7804 7.74668V7.78842L17.8221 7.83017L17.9474 8.0389L18.0309 8.16413C18.1978 8.45635 18.4066 8.83206 18.4066 9.20777C18.4066 9.83396 18.5318 10.5854 19.1162 11.2116H19.0745H19.0328H18.991L18.9075 11.1698C18.7405 11.1281 18.5736 11.0028 18.3648 10.8359C18.3231 10.8359 18.3231 10.9193 18.3231 11.0446V11.1698V11.2951V11.462C18.3231 11.5038 18.3231 11.5873 18.3231 11.629V11.796C18.3231 11.8377 18.3231 11.8377 18.3231 11.8795V12.0465C18.3648 12.2969 18.4066 12.5057 18.4901 12.6309C18.5736 12.7144 18.4066 12.6727 18.2396 12.5057L18.1561 12.4222L18.0309 12.2969C17.9891 12.2135 17.9474 12.1717 17.9056 12.2135H17.8639L17.8221 12.2552L17.7804 12.3387L17.7386 12.4222L17.6969 12.5057C17.6134 12.8396 17.5299 13.3406 17.8221 13.8415C17.8639 13.925 17.8221 13.925 17.7386 13.8833L17.6969 13.8415L17.6134 13.7998C17.4882 13.7163 17.2794 13.5493 17.1959 13.3823C17.1959 13.3406 17.1542 13.3823 17.1125 13.4658L17.0707 13.5493L17.029 13.6328V13.758C16.9455 14.1338 16.9455 14.7599 17.2377 15.3026C17.2794 15.3861 17.196 15.3444 17.1125 15.3026L17.029 15.2609L16.9455 15.2191L17.029 15.1774C17.029 15.1774 16.9872 15.1774 16.9872 15.1356L16.9455 15.0939C16.9037 15.0522 16.9037 15.0522 16.862 15.0104V14.9687C16.7785 14.8434 16.6533 15.1356 16.862 15.5948L17.1125 16.0541L17.1959 16.221L17.2794 16.388C17.4047 16.5967 17.4882 16.7637 17.5717 16.8472C17.6552 16.9307 17.8221 17.0559 18.0309 17.1394L18.3648 17.3064C18.4066 17.3482 18.4483 17.3482 18.4901 17.3899H18.5318L18.7823 17.5569L18.9075 17.6404C19.2415 17.8491 19.7424 18.0996 20.2016 18.0996C20.9113 18.0996 21.287 17.5986 21.287 17.3482H21.2453L20.9948 17.3064H20.9113L20.8278 17.2647L20.7026 17.2229L20.5773 17.1812H20.5356L20.4104 17.1394C19.7842 16.889 18.991 16.3463 18.991 15.0104C18.991 13.9668 19.6589 13.2154 20.2016 12.7561L20.3269 12.6727L20.4521 12.5892L20.5356 12.5057L20.6608 12.4222L20.7861 12.3387L21.1618 12.7144L21.0365 12.7979L20.8696 12.9231L20.7443 13.0066L20.7026 13.0484L20.5773 13.1736C20.1181 13.5911 19.5337 14.259 19.5337 15.0104C19.5337 16.2628 20.6608 16.8472 21.3288 16.8472V16.8055V16.7637V16.722V16.6802V16.6385C21.3288 16.6385 21.3288 16.6385 21.3288 16.5967V16.555V16.4715C21.3288 16.4298 21.3288 16.4298 21.3288 16.388L21.287 16.3045C21.1618 16.0123 20.8696 15.6783 20.1181 15.3444H20.2016H20.2851H20.3686C20.6191 15.3444 21.0365 15.3861 21.3288 15.8036C21.454 15.9706 21.4957 15.8453 21.5375 15.8036C21.5792 15.7618 21.788 15.5114 22.1219 15.6366L22.0384 15.6783C22.0384 15.6783 22.0384 15.6783 22.0384 15.7201L21.9967 15.7618C21.8715 15.9288 21.7045 16.3045 21.8715 16.8055H21.9549H21.9967L22.0802 16.7637H22.1219L22.2054 16.722C22.5811 16.5133 23.1656 16.0958 23.1656 15.1774C23.1656 14.3425 22.5811 13.7163 21.9967 13.1736L21.8297 13.0066L21.4957 12.7144C21.454 12.6727 21.454 12.6727 21.4123 12.6309L21.287 12.5057C21.2035 12.4639 21.1618 12.3804 21.12 12.3387L21.0783 12.2969C20.9948 12.2135 20.9113 12.0882 20.8278 12.0047L20.4521 11.629C20.0347 11.2116 19.6589 10.7524 19.5754 10.0844L19.5337 10.0009H19.492C19.3667 9.91745 19.0328 9.75047 19.0328 9.20777C19.0328 8.87381 19.2415 8.53984 19.4502 8.28937L19.5337 8.16413L19.6172 8.08064L19.6589 8.0389L19.7424 7.9554L19.8259 7.91366L19.8677 7.87191H19.9094C19.9094 7.87191 19.9094 7.87191 19.9094 7.91366L19.8677 8.12239L19.8259 8.20588C19.7842 8.37286 19.7842 8.58159 19.9512 8.58159C20.2016 8.58159 20.7443 7.9554 20.7443 7.83017C20.7443 7.78842 20.7861 7.83017 20.7861 7.87191V7.91366V7.99715V8.08064L20.7443 8.16413C20.7026 8.28937 20.6608 8.41461 20.5773 8.4981L20.5356 8.53984C20.4939 8.62333 20.4104 8.66508 20.3686 8.74857L20.1181 9.04079C19.9929 9.20777 19.8677 9.33301 19.9929 9.45825C20.1181 9.62523 20.4104 9.4165 20.5773 9.24952L20.6191 9.16603L20.6608 9.12428V9.08254C20.6608 9.04079 20.7026 9.04079 20.6608 9.08254V9.12428V9.20777L20.6191 9.29126V9.33301L20.5773 9.4165C20.4939 9.62523 20.3269 9.8757 20.0764 10.0009V10.0427V10.0844V10.1262V10.1679V10.2097V10.2514V10.2932L20.1181 10.3349L20.1599 10.4184L20.2016 10.5019C20.2016 10.5019 20.2016 10.5436 20.2434 10.5436L20.2851 10.6271L20.3686 10.7106L20.4521 10.7941L20.4939 10.8359L20.5773 10.9611L20.7026 11.0863L20.8278 11.2116C20.7443 11.2533 20.7861 11.2533 20.7861 11.2951L20.9113 11.4203L21.0783 11.5873L21.2453 11.7543L21.454 11.9212L21.6627 12.0882L21.8297 12.2552L22.0802 12.4639L22.2889 12.6309L22.4976 12.7979L22.7064 13.0066L22.7481 13.0484H22.7899C22.8316 13.0066 22.8734 12.9649 22.8734 12.8396V12.7979C22.8734 12.5474 22.9568 12.2969 23.0821 12.2135V12.3804V12.5057V12.7144V12.8814C23.0821 13.2154 23.1238 13.5911 23.2491 13.6746C23.3743 13.7163 23.416 13.5911 23.416 13.4241C23.4578 13.2571 23.583 13.0901 23.6248 13.1319L23.583 13.2571L23.5413 13.4241V13.5493V13.6746C23.4995 14.0085 23.4995 14.3425 23.7083 14.4677C23.75 14.4677 23.75 14.4677 23.7918 14.426L23.8335 14.3842C23.8752 14.3007 24.0005 14.259 24.2092 14.3425L24.1675 14.1755L24.1257 14.2172C23.9587 14.3007 23.7083 14.593 23.75 15.0104C23.7918 15.5948 23.2491 17.0977 21.8715 17.3064V17.3482V17.3899L21.8297 17.4734L21.788 17.5151L21.7462 17.5986L21.7045 17.6821C21.4957 18.0578 21.0783 18.6005 20.0347 18.4753L20.1181 18.5588L20.2016 18.6423L20.3269 18.7675L20.4104 18.8928L20.4939 19.018C20.4939 19.0597 20.5356 19.0597 20.5356 19.1015L20.6191 19.2267C20.9948 19.7694 21.3705 20.5626 21.3288 21.4392L21.287 21.3557L21.2453 21.1888L21.1618 20.98L21.0783 20.7713L20.9948 20.6461C20.9948 20.6043 20.9531 20.6043 20.9531 20.5626L20.8696 20.4373L20.7861 20.2704L20.7026 20.1034L20.5773 19.9364L20.4521 19.7694C20.3686 19.6024 20.2434 19.4772 20.1181 19.3102L19.9512 19.1432C19.5337 18.6423 19.0328 18.1831 18.4483 17.8491L18.3231 17.7656C18.2813 17.7656 18.2396 17.8074 18.2813 17.9743C18.3231 18.1831 18.1561 18.6423 18.0309 18.851C18.0309 18.8928 17.9891 18.8928 17.9891 18.9762V19.0597V19.1015V19.185V19.3102V19.352V19.4772V19.6024C18.0726 20.3121 18.4483 21.2723 19.6172 21.6062C19.8259 21.648 19.9929 21.648 20.1599 21.648H20.2434H20.3269L20.4104 21.6062V21.648L20.3686 21.6897L20.3269 21.7315L20.3686 21.648C20.2016 21.7732 19.9094 21.9402 19.325 21.9402C19.0745 21.9402 19.0745 22.3159 19.4502 22.3159C19.4502 22.3159 19.4502 22.3159 19.4502 22.3576V22.4411V22.5246V22.5664L19.4085 22.6916L19.325 22.9421L19.2832 23.1091L19.2415 23.276L19.1997 23.443L19.1162 23.61L19.0328 23.777L18.9493 23.944C18.9493 23.9857 18.9075 23.9857 18.9075 24.0275L18.824 24.1944C18.657 24.5702 18.4483 24.9041 18.2396 25.1128C18.1144 25.1963 18.1978 25.2381 18.2396 25.2798H18.2813H18.3231C18.3648 25.2798 18.4066 25.3216 18.4901 25.3633L18.5736 25.4051C18.5736 25.4051 18.6153 25.4051 18.6153 25.4468L18.6988 25.4886C18.7405 25.5303 18.7823 25.5303 18.824 25.572H18.7823C18.6988 25.572 18.6153 25.572 18.6153 25.6138V25.8643C18.5736 25.9895 18.5318 26.1565 18.2813 26.1565C17.9474 26.1565 17.8639 25.8225 17.8639 25.6555C17.8639 25.4886 17.6969 25.4886 17.6134 25.4886C17.5717 25.4886 17.3212 25.572 17.2377 25.8643L17.1959 25.9895C17.1542 26.2817 17.029 26.5322 16.7785 26.5322C16.4863 26.5322 16.4028 26.3235 16.4028 26.1565C16.4028 26.1147 16.4028 26.1147 16.361 26.1147H16.3193C16.2775 26.1147 16.1941 26.1147 16.1106 26.073L16.2358 25.9895L16.3193 25.9478L16.4445 25.8643L16.5698 25.7808C16.7785 25.6138 16.9455 25.4468 16.9037 25.3633C16.8202 25.1546 16.695 25.1963 16.6115 25.2798L16.5698 25.3216L16.4863 25.3633C16.361 25.4468 16.1523 25.572 15.9853 25.6138C15.7349 25.6555 15.6096 25.3216 15.7349 25.0711L15.7766 25.0294C15.8183 24.9876 15.7766 24.9876 15.7349 24.9459L15.6514 24.9041C15.6096 24.8624 15.5679 24.8624 15.5261 24.8206H15.6931H15.8601H15.9853C16.3193 24.8206 16.695 24.8206 16.695 24.6536C16.6533 24.4032 16.4445 24.4032 16.3193 24.4449C16.1941 24.4867 15.8183 24.4449 15.8183 24.1944C15.8183 24.1527 15.8601 24.111 15.8601 24.0692L15.9018 23.9857C15.9436 23.944 15.9436 23.9022 15.9436 23.8605C15.9436 23.8187 15.9018 23.777 15.8601 23.7352L15.8183 23.6935H15.8601C15.8601 23.6935 15.8601 23.6935 15.9018 23.6935H15.9853C16.0688 23.6935 16.1941 23.6935 16.3193 23.7352C16.4028 23.777 16.4863 23.8187 16.5698 23.944L16.7367 24.111C16.9037 24.2779 17.1125 24.4867 17.2794 24.4867C17.6134 24.4867 17.9056 23.9857 17.9056 22.9838V22.6081V22.4411V22.3159V22.1907V22.1072C17.8639 21.9402 17.8639 21.8567 17.7804 21.8149L17.7386 21.7732L17.6552 21.7315L17.6134 21.6897C17.6134 21.6897 17.5717 21.648 17.5717 21.6062V21.5227C17.5717 21.481 17.5717 21.3975 17.4882 21.3557C17.3629 21.314 17.1959 21.481 17.1542 22.1489V22.3159C17.1542 22.3576 17.1542 22.3576 17.1542 22.3994V22.6081V22.8168L17.1125 22.9421L17.0707 22.8586L17.029 22.7751V22.7333L16.9872 22.6081L16.9455 22.4829C16.9037 22.3159 16.862 22.1489 16.862 21.9402C16.862 21.8984 16.862 21.8567 16.862 21.8149V21.6062C16.862 21.5227 16.862 21.481 16.8202 21.4392C16.8202 21.4392 16.7785 21.4392 16.7367 21.481L16.695 21.5227L16.5698 21.648C16.4445 21.7732 16.2775 21.9402 16.0688 22.0237L16.1106 21.9402L16.1523 21.8567L16.1941 21.7732C16.2775 21.6062 16.361 21.3557 16.361 21.147C16.361 21.1053 16.361 21.0635 16.3193 21.0218V20.98L16.361 20.8548L16.2775 20.7713L16.2358 20.7296C16.1106 20.5626 15.9436 20.2286 15.9436 19.352C15.9436 19.0597 15.9853 18.851 16.0271 18.684L16.0688 18.5588C16.1106 18.3918 16.1523 18.2248 16.1523 17.9743C16.1523 17.6821 15.8183 17.3482 15.4426 17.0142L15.2757 16.889L15.1087 16.7637L15.0252 16.6802L14.4825 16.3045L14.3155 16.1793L14.1485 16.0541C14.1068 16.0123 14.1068 16.0123 14.065 15.9706L13.8563 15.8036L13.7311 15.6783L13.6058 15.5531L13.4806 15.4279L13.3971 15.3444L13.3554 15.3026C13.3554 15.3026 13.3554 15.3026 13.3554 15.2609C13.3136 15.2191 13.3971 15.1356 13.4388 15.0522L13.6893 14.7599L13.7728 14.6347C13.898 14.4677 13.9815 14.3007 13.8563 14.2172C13.6893 14.092 13.6058 14.1755 13.4806 14.3425L13.4388 14.426L13.3554 14.593C13.3554 14.6347 13.3136 14.6347 13.3136 14.6764C13.1466 14.9269 12.8544 15.1774 12.7292 15.2609C12.6874 15.2609 12.6874 15.2191 12.6874 15.1356V14.8017V14.6764C12.6874 14.4677 12.6457 14.259 12.5204 14.259C12.2282 14.259 12.1865 14.5512 12.2282 14.6764V14.7182C12.2282 14.7599 12.2282 14.7599 12.1447 14.7599H12.0612C11.936 14.7599 11.8108 14.8017 11.6855 14.9269L11.6438 15.0104C11.6438 15.0104 11.6438 15.0522 11.602 15.0522L11.5603 15.1356C11.4768 15.3026 11.3516 15.5114 11.3098 15.8453V15.8036V15.7618C11.2681 15.6366 11.2263 15.3444 11.3098 15.0939L11.3516 15.0104C11.3516 14.9687 11.3516 14.9687 11.2681 14.9687H11.1846H11.1428H11.0593H10.9341H10.7671L10.6001 15.0104L10.4332 15.0522L10.1409 15.0939L9.72349 15.1774C9.68174 15.1774 9.64 15.1774 9.59825 15.2191C9.47301 15.2609 9.43127 15.3026 9.43127 15.5114V15.6783V15.8453V16.0123C9.43127 16.1793 9.43127 16.2628 9.43127 16.388C9.43127 16.4298 9.38952 16.388 9.38952 16.3463V16.3045V16.2628V16.221C9.38952 16.221 9.38952 16.221 9.34778 16.221H9.30603H9.22254C9.05556 16.2628 8.80509 16.2628 8.80509 16.0123C8.80509 15.8036 8.84683 15.7618 8.93032 15.7201L8.97207 15.6783C9.01381 15.6366 9.05556 15.6366 9.05556 15.5531C9.05556 15.3026 8.88858 15.1774 8.67985 15.1774C8.55461 15.1774 8.47112 15.2609 8.38763 15.3444L8.30414 15.4279C8.1789 15.5531 8.05366 15.6783 7.88668 15.6783C7.51097 15.6783 7.46923 15.4279 7.46923 15.3026C7.46923 15.1774 7.51097 15.1356 7.51097 15.0522C7.51097 14.9687 7.42748 14.8852 7.34399 14.8852C7.30224 14.8852 7.38573 14.8434 7.51097 14.8434H7.55272L7.80319 14.8852C8.09541 14.9269 8.47112 14.8852 8.47112 14.6347C8.47112 14.5512 8.38763 14.5095 8.30414 14.5512H8.1789C8.13716 14.5512 8.13716 14.5512 8.09541 14.5512L7.92843 14.5095C7.7197 14.4677 7.42748 14.3842 7.42748 14.0503C7.42748 13.8833 7.59446 13.7998 7.67795 13.758H7.7197C7.7197 13.7163 7.76145 13.6328 7.76145 13.5493C7.76145 13.5076 7.76145 13.5076 7.84494 13.5493V13.4658L7.92843 13.5076L8.05366 13.5911L8.22065 13.758L8.34588 13.8833L8.38763 13.925L8.42937 13.9668C8.51287 14.092 8.6381 14.0503 8.67985 14.0085H8.72159C8.76334 13.9668 8.84683 13.8415 8.6381 13.7163C8.38763 13.5911 8.38763 13.4658 8.38763 13.2571C8.38763 13.0901 8.51287 13.0484 8.59636 13.0066H8.6381C8.67985 13.0066 8.72159 12.8396 8.67985 12.7561V12.7144C8.6381 12.5892 8.97207 12.8814 9.13905 13.2154C9.13905 13.2571 9.1808 13.2988 9.1808 13.3406V13.5493C9.1808 13.758 9.22254 13.925 9.47301 14.0503H9.55651H9.59825H9.64C9.64 14.0503 9.64 14.0503 9.68174 14.0503H9.72349H9.76523L9.84872 14.0085L9.97396 13.9668C9.97396 13.9668 10.0157 13.9668 10.0575 13.925L10.1409 13.8833L10.3914 13.7998L11.1428 13.5076L12.3117 13.0901C12.3952 13.0484 12.5622 12.9649 12.4787 12.8396C12.3952 12.6727 12.103 12.6309 11.6855 12.9231L11.6438 12.9649C11.5603 13.0484 11.5185 13.0066 11.5603 12.9231L11.602 12.8814L11.6438 12.7979C11.6438 12.7979 11.6438 12.7561 11.6855 12.7561L11.7273 12.6727C11.7273 12.6727 11.7273 12.6309 11.769 12.6309L11.8525 12.5474C11.8943 12.5057 11.8943 12.4639 11.936 12.4639L12.0195 12.3804C12.3117 12.0047 12.7709 11.629 13.1884 11.629C13.3554 11.629 13.3971 11.5455 13.3971 11.462V11.4203C13.3971 11.3368 13.3136 11.2533 13.0214 11.2533C12.6457 11.2533 12.1447 11.629 11.936 12.0047C11.936 12.0047 11.8943 12.0047 11.8525 12.0047L11.7273 11.9212C11.6438 11.8377 11.4768 11.796 11.2681 11.796C11.0176 11.796 10.8506 11.8377 10.7254 11.8377L10.6419 11.8795H10.5584H10.5167C10.4332 11.8795 10.7254 11.462 11.2263 11.462C11.3098 11.462 11.3098 11.3368 11.1428 11.2116L11.1011 11.1698C11.0176 11.1281 10.8924 10.9611 10.7671 10.8359L10.6419 10.6689L10.3914 10.3349C10.3497 10.2932 10.3497 10.2932 10.3079 10.2514C10.2244 10.1679 10.1409 10.2932 10.0157 10.5019L9.97396 10.5854L9.93222 10.7106L9.89047 10.8359L9.84872 10.9611C9.84872 11.0028 9.80698 10.9611 9.80698 10.9193V10.8776V10.8359V10.7941C9.80698 10.7524 9.76523 10.7524 9.76523 10.7524L9.68174 10.7106C9.55651 10.6689 9.43127 10.5854 9.43127 10.3349C9.43127 10.0427 9.59825 10.0009 9.76523 10.0427H9.80698L9.89047 10.0844C9.89047 10.0844 9.89047 10.0844 9.93222 10.0844C10.0992 10.1262 10.2662 9.91745 10.2244 9.75047C9.93222 9.58348 9.76523 9.37476 9.51476 9.37476H9.47301C9.1808 9.4165 8.76334 9.20777 8.76334 8.87381C8.76334 8.70683 8.84683 8.62333 8.93032 8.58159L9.01381 8.53984H9.05556C9.0973 8.4981 9.0973 8.33112 9.0973 8.28937C9.0973 8.28937 9.0973 8.28937 9.13905 8.28937L9.1808 8.33112L9.26429 8.37286L9.34778 8.45635L9.43127 8.53984L9.47301 8.58159L9.55651 8.66508C9.59825 8.70683 9.59825 8.70683 9.64 8.74857L9.76523 8.87381C9.89047 8.99904 9.93222 9.04079 10.0157 8.99905C10.0992 8.9573 10.1409 8.74857 9.84872 8.4981C9.55651 8.24762 9.59825 7.9554 9.72349 7.78842C9.72349 7.78842 9.76523 7.78842 9.80698 7.78842H9.93222C10.0575 7.78842 10.1827 7.78842 10.2244 7.70493C10.2244 7.62144 10.2662 7.66319 10.2662 7.70493V7.74668V7.83017L10.3079 7.91366V8.08064V8.24762L10.3497 8.33112V8.37286V8.45635C10.3497 8.70683 10.4332 8.74857 10.5167 8.74857C10.6001 8.74857 10.6836 8.70683 10.6419 8.33112C10.6001 7.99715 10.6836 7.91366 10.7671 7.87191L10.8089 7.83017C10.8924 7.78842 11.0176 7.78842 11.1011 7.87191C11.1846 7.9554 11.3516 7.83017 11.3516 7.70493V7.74668V7.78842V7.87191C11.3933 7.99715 11.3933 8.16413 11.2681 8.33112C11.2263 8.37286 11.2263 8.41461 11.1846 8.41461L11.0176 8.58159C10.8506 8.74857 10.7254 8.9573 10.8924 9.29126L10.9341 9.37476L12.6039 11.0863C12.6457 11.0863 12.6874 11.0446 12.6039 10.9611C12.5204 10.8359 12.5204 10.7106 12.6039 10.6271V10.5854L12.6457 10.6271L12.7292 10.6689L12.8127 10.7106C12.8127 10.7106 12.8544 10.7106 12.8544 10.7524L12.9379 10.7941C13.2301 10.9193 13.6476 11.0446 14.2738 10.9611C15.4009 10.8359 15.8601 10.0427 15.6931 9.8757L15.7766 9.91745L15.6931 10.0009L15.6514 10.0427L15.5679 10.1262C15.3591 10.2514 15.1087 10.4184 14.8582 10.4184C14.399 10.4184 14.1485 9.95919 14.232 9.66697V9.62523L14.2738 9.66697L14.3155 9.70872C14.399 9.79221 14.6077 9.91745 14.8582 9.91745C15.2339 9.91745 15.6514 9.45825 15.5679 9.20777C15.5679 9.16603 15.5261 9.16603 15.4426 9.20777L15.3591 9.16603L14.9417 9.29126L14.7747 9.33301C14.733 9.33301 14.733 9.33301 14.6912 9.37476L14.5242 9.4165C14.232 9.49999 13.8146 9.54174 13.3971 9.54174C12.0612 9.54174 11.8525 8.20588 12.8127 7.66319L12.7709 7.70493L12.7292 7.78842V7.83017V7.91366V7.99715V8.08064V8.16413C12.6457 8.62333 12.7709 9.20777 13.8563 9.20777C14.065 9.20777 14.2738 9.20777 14.4407 9.16603L14.6077 9.12428C14.6495 9.12428 14.733 9.12428 14.7747 9.08254L14.9417 9.04079L15.0669 8.99905L15.1922 8.9573L15.2757 8.91555L15.3591 8.87381L15.4844 8.83206V8.79032V8.74857C15.4426 8.62333 15.2757 8.33112 14.8999 8.33112C14.5242 8.33112 14.3572 8.62333 14.2738 8.74857L14.232 8.79032V8.83206L14.1903 8.79032L14.1068 8.87381C13.9815 8.79032 13.7728 8.53984 13.8563 8.24762C13.8563 8.20588 13.898 8.20588 13.9398 8.20588H14.0233H14.1068C14.232 8.16413 14.3572 8.12239 14.3572 7.9554C14.3572 7.87191 14.3155 7.83017 14.2738 7.83017H14.232C14.1903 7.83017 14.1485 7.87191 14.1068 7.91366L14.065 7.99715C14.0233 8.0389 14.0233 8.08064 13.9398 8.08064C13.7728 8.08064 13.7728 7.57969 14.1068 7.57969H14.1485C14.232 7.57969 14.3572 7.57969 14.399 7.4962V7.45446C14.399 7.32922 14.6912 7.20398 15.3174 7.16224H15.5261C15.6096 7.16224 15.7349 7.16224 15.8601 7.16224C16.3193 7.16224 16.6115 7.24573 16.7785 7.28748L16.862 7.32922L16.9037 7.37097L16.9455 7.41271L16.9872 7.45446V7.41271C17.029 7.24573 17.1542 7.037 17.4464 7.037ZM13.0214 16.6385H13.5641H13.9398H14.1903H14.3572H14.4825H14.566H14.6077H14.6495C14.6912 16.6385 14.6912 16.6802 14.6912 16.722V16.7637C14.6912 16.8055 14.6912 16.889 14.8165 16.9307C14.9834 16.9725 15.4844 17.3899 15.4844 17.5986C15.4844 17.6404 15.4426 17.7239 15.4009 17.7656L15.2757 17.9326C15.2339 18.0161 15.1922 18.0996 15.2757 18.2666C15.4844 18.5588 15.6514 18.5588 15.7766 18.5588H15.7349C15.7349 18.5588 15.7349 18.5588 15.6931 18.5588L15.6514 18.6005C15.5261 18.6423 15.2757 18.684 14.8999 18.684H14.8165C14.6495 18.684 14.4825 18.6423 14.3155 18.6005L13.8563 18.517C13.6058 18.4753 13.3971 18.4335 13.1466 18.4753H13.1049H13.0214C12.5622 18.5588 12.27 18.9762 12.4787 20.3121V20.4373C12.4787 20.4791 12.5622 20.5208 12.7292 20.5208C12.9796 20.5208 13.6058 20.8131 13.9815 21.4392L13.8146 21.3557V21.2723L13.6893 21.2305L13.5641 21.1888C13.2301 21.0218 12.8962 20.8965 12.7709 21.1053C12.6874 21.2723 12.7292 21.3975 12.8544 21.481C12.8962 21.481 12.8127 21.5227 12.6874 21.5645L12.5622 21.6062L12.3535 21.6897H12.1447L11.7273 21.8149L10.9759 22.0237C10.8506 22.0654 10.8089 22.1489 11.0593 22.3159L11.1011 22.3576L11.2263 22.4411L11.3516 22.5246L11.3933 22.5664C11.4351 22.6081 11.4768 22.6499 11.4351 22.6499H11.3098C11.1846 22.6499 11.0593 22.6499 11.0593 22.7333C11.0593 22.8168 11.0176 23.0256 10.8089 23.0256C10.6001 23.0256 10.4749 22.9003 10.4749 22.7333V22.6081V22.5246C10.4749 22.3576 10.3914 22.2324 10.2244 22.2324C9.97396 22.2324 9.80698 22.4829 9.80698 22.9421C9.80698 23.276 9.47301 23.3595 9.34778 23.3595C9.22254 23.3595 9.0973 23.3178 9.0973 23.1091C9.0973 23.0673 9.01381 23.0673 8.93032 23.0673H8.84683C8.80508 23.0673 8.84683 23.0256 8.93032 22.9421L9.01381 22.9003L9.13905 22.8168L9.26429 22.7333L9.51476 22.5246C9.59825 22.4829 9.59825 22.3159 9.55651 22.2741L9.51476 22.2324C9.43127 22.1907 9.34778 22.1489 9.1808 22.2741C9.01381 22.4411 8.80508 22.5664 8.6381 22.5664C8.47112 22.5664 8.30414 22.3994 8.30414 22.2324V22.1907V22.0237C8.30414 21.9402 8.30414 21.8149 8.1789 21.7732L8.13716 21.7315C8.09541 21.6897 8.09541 21.6897 8.1789 21.6897H8.26239H8.55461H8.88858H9.01381H9.13905C9.30603 21.6897 9.47301 21.648 9.47301 21.6062C9.47301 21.3975 9.26429 21.3557 9.1808 21.3557H9.05556C8.84683 21.3557 8.55461 21.3557 8.55461 21.0635C8.55461 20.98 8.59636 20.9383 8.6381 20.8965H8.67985C8.67985 20.8548 8.72159 20.8548 8.72159 20.8131C8.72159 20.7296 8.59636 20.7296 8.55461 20.7296L8.59636 20.6878L8.6381 20.6461C8.76334 20.6043 9.01381 20.5208 9.26429 20.7296C9.30603 20.7713 9.38952 20.8548 9.43127 20.8965L9.51476 21.0218L9.59825 21.147C9.72349 21.314 9.84872 21.4392 10.0575 21.4392H10.1409C10.5584 21.3975 11.5603 21.0218 11.5603 19.8946C11.5603 19.5607 11.4768 19.2685 11.3933 19.018L11.3516 18.8928L11.3098 18.7675L11.1846 18.517C11.1846 18.4753 11.1846 18.4753 11.1846 18.4753C11.1846 18.4335 11.1846 18.4336 11.2263 18.4336H11.3098C11.3933 18.4336 11.5185 18.3918 11.5185 18.2248C11.5185 17.8909 9.51476 17.8491 8.88858 18.4753V18.4336V18.3918V18.3501V18.3083L8.93032 18.2248C9.05556 18.0161 9.34778 17.7239 10.0157 17.7239C10.1827 17.7239 10.3079 17.7656 10.3914 17.7656L10.5167 17.8074C10.6419 17.8491 10.7254 17.8491 10.8506 17.8074C10.8924 17.8074 10.8924 17.7656 10.8506 17.7239L10.6836 17.5151C10.5584 17.3899 10.4332 17.2647 10.4749 17.0142L10.5167 17.0559C10.6419 17.1812 10.9341 17.4317 11.2681 17.4317C11.3098 17.4317 11.3098 17.4317 11.3516 17.3899L11.3933 17.3482L11.4768 17.2229L11.5603 17.1394L11.6438 17.0559C11.8943 16.889 12.3117 16.6385 13.0214 16.6385ZM15.0669 14.1338C14.9834 14.1338 14.8999 14.1755 14.8999 14.259V14.3007V14.3425V14.3842C14.8999 14.3842 14.8999 14.426 14.8582 14.426L14.8165 14.5095L14.7747 14.593C14.6495 14.7599 14.4825 14.9687 14.1068 15.1356C14.065 15.1774 14.0233 15.2609 14.065 15.3444C14.1068 15.3861 14.1485 15.4279 14.232 15.4279H14.2738C14.8165 15.1774 15.0669 14.8434 15.1504 14.593L15.1922 14.5095V14.4677V14.426V14.3425V14.3007C15.1922 14.2172 15.1504 14.1338 15.0669 14.1338ZM16.2358 14.0503C16.1523 14.0503 16.1106 14.092 16.0688 14.1755V14.259V14.3007V14.3425C16.0271 14.5512 15.9018 14.9269 15.4426 15.1774C15.4009 15.2191 15.3591 15.3026 15.4009 15.3861C15.4426 15.4279 15.4844 15.4696 15.5679 15.4696H15.6096C16.1106 15.2191 16.3193 14.8017 16.4028 14.5095V14.426V14.3842V14.3007V14.259V14.2172C16.361 14.092 16.3193 14.0503 16.2358 14.0503ZM14.3572 12.13C14.3155 12.2135 14.3572 12.2969 14.399 12.3804L14.4407 12.4222C14.4825 12.4639 14.6077 12.5892 14.6495 12.7561C14.733 13.0484 14.6495 13.4658 14.399 13.8833C14.3572 13.925 14.3572 14.0503 14.4407 14.092C14.4825 14.1338 14.4825 14.1338 14.5242 14.1338C14.566 14.1338 14.6495 14.092 14.6912 14.0503C14.9834 13.5493 15.1087 13.0901 15.0252 12.7144V12.6309C14.9834 12.3804 14.8165 12.2552 14.733 12.1717L14.6912 12.13L14.566 12.0882C14.4825 12.0465 14.3572 12.0465 14.3572 12.13ZM13.5641 12.2552L13.4806 12.2969L13.4388 12.3387L13.3971 12.3804L13.3136 12.4639C13.1049 12.6727 12.8962 13.0484 12.8127 13.6746C12.8127 13.758 12.8544 13.8415 12.9379 13.8415H12.9796H13.0214C13.0631 13.8415 13.1466 13.7998 13.1884 13.7163V13.6746C13.2301 13.0901 13.4806 12.7561 13.6476 12.5892L13.6893 12.5474L13.7311 12.5057C13.8146 12.4639 13.8146 12.3387 13.7728 12.2969C13.7311 12.2552 13.6476 12.2552 13.5641 12.2552ZM15.5261 11.1698C15.4844 11.2533 15.4844 11.3368 15.5679 11.3785L15.6096 11.4203L15.6514 11.462L15.6931 11.5038C15.6931 11.5038 15.6931 11.5038 15.6931 11.5455L15.7349 11.5873C15.8601 11.796 15.9853 12.13 15.8601 12.7561L15.8183 12.8814C15.7766 12.9649 15.8183 13.0066 15.9018 13.0484H15.9436H15.9853C16.0271 13.0484 16.1106 13.0066 16.1523 12.9231C16.361 12.0047 16.0688 11.5038 15.9018 11.2951L15.8601 11.2533L15.8183 11.2116L15.7766 11.1281L15.7349 11.0863C15.6514 11.0863 15.5679 11.0863 15.5261 11.1698ZM22.1637 7.74668L22.2472 7.91366L22.2889 7.99715C22.4141 8.24762 22.6646 8.53984 22.9151 8.4981C22.9986 8.4981 22.9986 8.37286 22.9568 8.24762L22.9151 8.08064L22.8734 7.99715V7.91366C22.8734 7.87191 22.8734 7.87191 22.8734 7.83017L22.9568 7.91366L23.0403 7.99715L23.1238 8.08064C23.2491 8.20588 23.3743 8.33112 23.4995 8.41461C23.75 8.58159 23.7918 9.08254 23.6665 9.37476C23.5413 9.58348 23.3326 9.79221 23.2908 10.0009V10.0427C23.2491 10.1679 23.1656 10.3349 23.0403 10.5854L22.9568 10.7524C22.8734 10.8776 22.8316 10.9611 22.7064 11.0863L22.5394 11.2533C22.4142 11.4203 22.2472 11.5873 22.0802 11.7543L21.9967 11.8377L21.5792 11.462L21.7045 11.3368L21.8297 11.2116L21.9549 11.0863L21.9967 11.0446L22.1219 10.9193L22.2472 10.7941C22.5394 10.4601 22.7899 10.1262 22.7481 9.8757H22.7064L22.6646 9.83396C22.6646 9.83396 22.6646 9.83396 22.6229 9.83396L22.5394 9.79221C22.3724 9.66697 22.1219 9.4165 22.1637 9.04079L22.2054 9.12428C22.2054 9.12428 22.2054 9.12428 22.2472 9.16603L22.2889 9.24952C22.4141 9.4165 22.6229 9.58348 22.7481 9.45825C22.9568 9.33301 22.7899 8.99904 22.5394 8.74857L22.4559 8.66508V8.53984L22.4142 8.4981C22.2472 8.33112 22.1637 8.08064 22.1637 7.91366V7.83017V7.74668ZM16.2358 9.12428C16.1941 9.20777 16.2358 9.29126 16.3193 9.33301C16.7785 9.49999 17.196 9.75047 17.2377 9.8757H17.1959C17.1959 9.8757 17.1959 9.8757 17.1542 9.8757H17.1125H17.0707H16.9872H16.9455H16.8202H16.6115C16.5698 9.8757 16.4863 9.91745 16.4445 9.95919C16.4028 10.0009 16.4445 10.0427 16.4445 10.1262L16.4863 10.2097L16.528 10.2514V10.2932C16.528 10.2932 16.528 10.2932 16.528 10.3349V10.4184V10.4601V10.5436V10.5854V10.7106C16.528 10.8776 16.528 11.0863 16.4863 11.2951C16.4863 11.3785 16.528 11.4203 16.6533 11.462H16.695H16.7367C16.7785 11.462 16.862 11.3785 16.862 11.2951C16.862 11.2116 16.862 11.1281 16.862 11.0863V10.8776C16.862 10.8359 16.862 10.8359 16.862 10.7941V10.6271C16.862 10.4184 16.8202 10.2932 16.7785 10.1679C17.029 10.1679 17.2377 10.1262 17.3629 10.0009C17.4047 9.95919 17.4464 9.8757 17.4464 9.79221C17.4464 9.49999 17.029 9.24952 16.695 9.08254L16.5698 9.04079L16.4445 8.99905L16.361 8.9573H16.3193C16.361 8.99904 16.2775 9.04079 16.2358 9.12428ZM15.8601 7.4962H15.1087C14.9834 7.4962 14.9834 7.53795 14.9417 7.57969C14.9417 7.66319 14.9834 7.70493 14.9834 7.74668L15.0252 7.78842H15.4426H15.4844C15.5261 7.78842 15.6096 7.78842 15.6096 7.83017C15.6096 7.87191 15.4844 7.91366 15.3591 7.9554H15.2757H15.1504L15.1922 7.99715C15.2339 8.08064 15.3174 8.12239 15.4844 8.12239C15.7349 8.12239 15.8183 7.91366 15.8183 7.74668V7.70493V7.66319C15.8601 7.66319 15.9853 7.66319 15.9853 7.57969C16.0271 7.53795 15.9436 7.4962 15.8601 7.4962ZM15.6931 5.2002L15.8183 5.24194L15.9018 5.32543L15.9436 5.36718L16.0688 5.40892C16.2358 5.53416 16.4028 5.70114 16.4028 5.86812C16.4028 6.07685 16.1941 6.16034 16.0688 6.20209H16.0271C16.1106 6.41082 16.2775 6.49431 16.361 6.53605H16.4028H16.7367C16.9872 6.53605 16.9872 6.32733 16.9872 6.24384V6.16034H16.9455C16.862 6.16034 16.695 6.07685 16.695 5.90987C16.695 5.70114 16.9872 5.53416 17.2794 5.45067L17.3629 5.40892L17.4464 5.36718L17.5717 5.32543L17.4882 5.6594H17.4464C17.3629 5.6594 17.2794 5.74289 17.2794 5.86812C17.2794 5.90987 17.3212 5.95162 17.3629 5.99336H17.4047L17.1542 6.82827H14.399L14.1903 6.03511C14.232 5.99336 14.3155 5.95162 14.3155 5.86812C14.3155 5.74289 14.232 5.6594 14.1485 5.6594H14.1068L13.9815 5.28369C14.232 5.32543 14.8582 5.57591 14.8582 5.86812C14.8582 6.07685 14.6912 6.16034 14.6077 6.16034H14.566C14.566 6.41082 14.733 6.49431 14.8165 6.49431H14.8582H14.8999H15.2757C15.4844 6.49431 15.5261 6.24384 15.5261 6.16034V6.1186H15.4844H15.4009C15.2757 6.07685 15.1504 6.03511 15.1504 5.90987C15.1504 5.70114 15.3174 5.53416 15.4844 5.36718L15.5679 5.28369L15.6514 5.2002H15.6931ZM15.7766 5.70114C15.6514 5.70114 15.5679 5.78463 15.5679 5.90987C15.5679 6.03511 15.6514 6.1186 15.7766 6.1186C15.9018 6.1186 15.9853 6.03511 15.9853 5.90987C15.9853 5.78463 15.9018 5.70114 15.7766 5.70114Z" fill="#FAB413"/>
</svg>
