<svg width="32" height="33" viewBox="0 0 32 33" fill="none" xmlns="http://www.w3.org/2000/svg">
  <rect y="0.5" width="32" height="32" rx="2" fill="#2D5FAF"/>
  <path d="M17.4464 7.537C17.7386 7.537 17.8221 7.70398 17.8639 7.82922V7.87097V7.91271C17.8639 7.9962 17.8639 8.12144 17.8221 8.16319L17.7804 8.24668V8.28842L17.8221 8.33017L17.9474 8.5389L18.0309 8.66413C18.1978 8.95635 18.4066 9.33206 18.4066 9.70777C18.4066 10.334 18.5318 11.0854 19.1162 11.7116H19.0745H19.0328H18.991L18.9075 11.6698C18.7405 11.6281 18.5736 11.5028 18.3648 11.3359C18.3231 11.3359 18.3231 11.4193 18.3231 11.5446V11.6698V11.7951V11.962C18.3231 12.0038 18.3231 12.0873 18.3231 12.129V12.296C18.3231 12.3377 18.3231 12.3377 18.3231 12.3795V12.5465C18.3648 12.7969 18.4066 13.0057 18.4901 13.1309C18.5736 13.2144 18.4066 13.1727 18.2396 13.0057L18.1561 12.9222L18.0309 12.7969C17.9891 12.7135 17.9474 12.6717 17.9056 12.7135H17.8639L17.8221 12.7552L17.7804 12.8387L17.7386 12.9222L17.6969 13.0057C17.6134 13.3396 17.5299 13.8406 17.8221 14.3415C17.8639 14.425 17.8221 14.425 17.7386 14.3833L17.6969 14.3415L17.6134 14.2998C17.4882 14.2163 17.2794 14.0493 17.1959 13.8823C17.1959 13.8406 17.1542 13.8823 17.1125 13.9658L17.0707 14.0493L17.029 14.1328V14.258C16.9455 14.6338 16.9455 15.2599 17.2377 15.8026C17.2794 15.8861 17.196 15.8444 17.1125 15.8026L17.029 15.7609L16.9455 15.7191L17.029 15.6774C17.029 15.6774 16.9872 15.6774 16.9872 15.6356L16.9455 15.5939C16.9037 15.5522 16.9037 15.5522 16.862 15.5104V15.4687C16.7785 15.3434 16.6533 15.6356 16.862 16.0948L17.1125 16.5541L17.1959 16.721L17.2794 16.888C17.4047 17.0967 17.4882 17.2637 17.5717 17.3472C17.6552 17.4307 17.8221 17.5559 18.0309 17.6394L18.3648 17.8064C18.4066 17.8482 18.4483 17.8482 18.4901 17.8899H18.5318L18.7823 18.0569L18.9075 18.1404C19.2415 18.3491 19.7424 18.5996 20.2016 18.5996C20.9113 18.5996 21.287 18.0986 21.287 17.8482H21.2453L20.9948 17.8064H20.9113L20.8278 17.7647L20.7026 17.7229L20.5773 17.6812H20.5356L20.4104 17.6394C19.7842 17.389 18.991 16.8463 18.991 15.5104C18.991 14.4668 19.6589 13.7154 20.2016 13.2561L20.3269 13.1727L20.4521 13.0892L20.5356 13.0057L20.6608 12.9222L20.7861 12.8387L21.1618 13.2144L21.0365 13.2979L20.8696 13.4231L20.7443 13.5066L20.7026 13.5484L20.5773 13.6736C20.1181 14.0911 19.5337 14.759 19.5337 15.5104C19.5337 16.7628 20.6608 17.3472 21.3288 17.3472V17.3055V17.2637V17.222V17.1802V17.1385C21.3288 17.1385 21.3288 17.1385 21.3288 17.0967V17.055V16.9715C21.3288 16.9298 21.3288 16.9298 21.3288 16.888L21.287 16.8045C21.1618 16.5123 20.8696 16.1783 20.1181 15.8444H20.2016H20.2851H20.3686C20.6191 15.8444 21.0365 15.8861 21.3288 16.3036C21.454 16.4706 21.4957 16.3453 21.5375 16.3036C21.5792 16.2618 21.788 16.0114 22.1219 16.1366L22.0384 16.1783C22.0384 16.1783 22.0384 16.1783 22.0384 16.2201L21.9967 16.2618C21.8715 16.4288 21.7045 16.8045 21.8715 17.3055H21.9549H21.9967L22.0802 17.2637H22.1219L22.2054 17.222C22.5811 17.0133 23.1656 16.5958 23.1656 15.6774C23.1656 14.8425 22.5811 14.2163 21.9967 13.6736L21.8297 13.5066L21.4957 13.2144C21.454 13.1727 21.454 13.1727 21.4123 13.1309L21.287 13.0057C21.2035 12.9639 21.1618 12.8804 21.12 12.8387L21.0783 12.7969C20.9948 12.7135 20.9113 12.5882 20.8278 12.5047L20.4521 12.129C20.0347 11.7116 19.6589 11.2524 19.5754 10.5844L19.5337 10.5009H19.492C19.3667 10.4174 19.0328 10.2505 19.0328 9.70777C19.0328 9.37381 19.2415 9.03984 19.4502 8.78937L19.5337 8.66413L19.6172 8.58064L19.6589 8.5389L19.7424 8.4554L19.8259 8.41366L19.8677 8.37191H19.9094C19.9094 8.37191 19.9094 8.37191 19.9094 8.41366L19.8677 8.62239L19.8259 8.70588C19.7842 8.87286 19.7842 9.08159 19.9512 9.08159C20.2016 9.08159 20.7443 8.4554 20.7443 8.33017C20.7443 8.28842 20.7861 8.33017 20.7861 8.37191V8.41366V8.49715V8.58064L20.7443 8.66413C20.7026 8.78937 20.6608 8.91461 20.5773 8.9981L20.5356 9.03984C20.4939 9.12333 20.4104 9.16508 20.3686 9.24857L20.1181 9.54079C19.9929 9.70777 19.8677 9.83301 19.9929 9.95825C20.1181 10.1252 20.4104 9.9165 20.5773 9.74952L20.6191 9.66603L20.6608 9.62428V9.58254C20.6608 9.54079 20.7026 9.54079 20.6608 9.58254V9.62428V9.70777L20.6191 9.79126V9.83301L20.5773 9.9165C20.4939 10.1252 20.3269 10.3757 20.0764 10.5009V10.5427V10.5844V10.6262V10.6679V10.7097V10.7514V10.7932L20.1181 10.8349L20.1599 10.9184L20.2016 11.0019C20.2016 11.0019 20.2016 11.0436 20.2434 11.0436L20.2851 11.1271L20.3686 11.2106L20.4521 11.2941L20.4939 11.3359L20.5773 11.4611L20.7026 11.5863L20.8278 11.7116C20.7443 11.7533 20.7861 11.7533 20.7861 11.7951L20.9113 11.9203L21.0783 12.0873L21.2453 12.2543L21.454 12.4212L21.6627 12.5882L21.8297 12.7552L22.0802 12.9639L22.2889 13.1309L22.4976 13.2979L22.7064 13.5066L22.7481 13.5484H22.7899C22.8316 13.5066 22.8734 13.4649 22.8734 13.3396V13.2979C22.8734 13.0474 22.9568 12.7969 23.0821 12.7135V12.8804V13.0057V13.2144V13.3814C23.0821 13.7154 23.1238 14.0911 23.2491 14.1746C23.3743 14.2163 23.416 14.0911 23.416 13.9241C23.4578 13.7571 23.583 13.5901 23.6248 13.6319L23.583 13.7571L23.5413 13.9241V14.0493V14.1746C23.4995 14.5085 23.4995 14.8425 23.7083 14.9677C23.75 14.9677 23.75 14.9677 23.7918 14.926L23.8335 14.8842C23.8752 14.8007 24.0005 14.759 24.2092 14.8425L24.1675 14.6755L24.1257 14.7172C23.9587 14.8007 23.7083 15.093 23.75 15.5104C23.7918 16.0948 23.2491 17.5977 21.8715 17.8064V17.8482V17.8899L21.8297 17.9734L21.788 18.0151L21.7462 18.0986L21.7045 18.1821C21.4957 18.5578 21.0783 19.1005 20.0347 18.9753L20.1181 19.0588L20.2016 19.1423L20.3269 19.2675L20.4104 19.3928L20.4939 19.518C20.4939 19.5597 20.5356 19.5597 20.5356 19.6015L20.6191 19.7267C20.9948 20.2694 21.3705 21.0626 21.3288 21.9392L21.287 21.8557L21.2453 21.6888L21.1618 21.48L21.0783 21.2713L20.9948 21.1461C20.9948 21.1043 20.9531 21.1043 20.9531 21.0626L20.8696 20.9373L20.7861 20.7704L20.7026 20.6034L20.5773 20.4364L20.4521 20.2694C20.3686 20.1024 20.2434 19.9772 20.1181 19.8102L19.9512 19.6432C19.5337 19.1423 19.0328 18.6831 18.4483 18.3491L18.3231 18.2656C18.2813 18.2656 18.2396 18.3074 18.2813 18.4743C18.3231 18.6831 18.1561 19.1423 18.0309 19.351C18.0309 19.3928 17.9891 19.3928 17.9891 19.4762V19.5597V19.6015V19.685V19.8102V19.852V19.9772V20.1024C18.0726 20.8121 18.4483 21.7723 19.6172 22.1062C19.8259 22.148 19.9929 22.148 20.1599 22.148H20.2434H20.3269L20.4104 22.1062V22.148L20.3686 22.1897L20.3269 22.2315L20.3686 22.148C20.2016 22.2732 19.9094 22.4402 19.325 22.4402C19.0745 22.4402 19.0745 22.8159 19.4502 22.8159C19.4502 22.8159 19.4502 22.8159 19.4502 22.8576V22.9411V23.0246V23.0664L19.4085 23.1916L19.325 23.4421L19.2832 23.6091L19.2415 23.776L19.1997 23.943L19.1162 24.11L19.0328 24.277L18.9493 24.444C18.9493 24.4857 18.9075 24.4857 18.9075 24.5275L18.824 24.6944C18.657 25.0702 18.4483 25.4041 18.2396 25.6128C18.1144 25.6963 18.1978 25.7381 18.2396 25.7798H18.2813H18.3231C18.3648 25.7798 18.4066 25.8216 18.4901 25.8633L18.5736 25.9051C18.5736 25.9051 18.6153 25.9051 18.6153 25.9468L18.6988 25.9886C18.7405 26.0303 18.7823 26.0303 18.824 26.072H18.7823C18.6988 26.072 18.6153 26.072 18.6153 26.1138V26.3643C18.5736 26.4895 18.5318 26.6565 18.2813 26.6565C17.9474 26.6565 17.8639 26.3225 17.8639 26.1555C17.8639 25.9886 17.6969 25.9886 17.6134 25.9886C17.5717 25.9886 17.3212 26.072 17.2377 26.3643L17.1959 26.4895C17.1542 26.7817 17.029 27.0322 16.7785 27.0322C16.4863 27.0322 16.4028 26.8235 16.4028 26.6565C16.4028 26.6147 16.4028 26.6147 16.361 26.6147H16.3193C16.2775 26.6147 16.1941 26.6147 16.1106 26.573L16.2358 26.4895L16.3193 26.4478L16.4445 26.3643L16.5698 26.2808C16.7785 26.1138 16.9455 25.9468 16.9037 25.8633C16.8202 25.6546 16.695 25.6963 16.6115 25.7798L16.5698 25.8216L16.4863 25.8633C16.361 25.9468 16.1523 26.072 15.9853 26.1138C15.7349 26.1555 15.6096 25.8216 15.7349 25.5711L15.7766 25.5294C15.8183 25.4876 15.7766 25.4876 15.7349 25.4459L15.6514 25.4041C15.6096 25.3624 15.5679 25.3624 15.5261 25.3206H15.6931H15.8601H15.9853C16.3193 25.3206 16.695 25.3206 16.695 25.1536C16.6533 24.9032 16.4445 24.9032 16.3193 24.9449C16.1941 24.9867 15.8183 24.9449 15.8183 24.6944C15.8183 24.6527 15.8601 24.611 15.8601 24.5692L15.9018 24.4857C15.9436 24.444 15.9436 24.4022 15.9436 24.3605C15.9436 24.3187 15.9018 24.277 15.8601 24.2352L15.8183 24.1935H15.8601C15.8601 24.1935 15.8601 24.1935 15.9018 24.1935H15.9853C16.0688 24.1935 16.1941 24.1935 16.3193 24.2352C16.4028 24.277 16.4863 24.3187 16.5698 24.444L16.7367 24.611C16.9037 24.7779 17.1125 24.9867 17.2794 24.9867C17.6134 24.9867 17.9056 24.4857 17.9056 23.4838V23.1081V22.9411V22.8159V22.6907V22.6072C17.8639 22.4402 17.8639 22.3567 17.7804 22.3149L17.7386 22.2732L17.6552 22.2315L17.6134 22.1897C17.6134 22.1897 17.5717 22.148 17.5717 22.1062V22.0227C17.5717 21.981 17.5717 21.8975 17.4882 21.8557C17.3629 21.814 17.1959 21.981 17.1542 22.6489V22.8159C17.1542 22.8576 17.1542 22.8576 17.1542 22.8994V23.1081V23.3168L17.1125 23.4421L17.0707 23.3586L17.029 23.2751V23.2333L16.9872 23.1081L16.9455 22.9829C16.9037 22.8159 16.862 22.6489 16.862 22.4402C16.862 22.3984 16.862 22.3567 16.862 22.3149V22.1062C16.862 22.0227 16.862 21.981 16.8202 21.9392C16.8202 21.9392 16.7785 21.9392 16.7367 21.981L16.695 22.0227L16.5698 22.148C16.4445 22.2732 16.2775 22.4402 16.0688 22.5237L16.1106 22.4402L16.1523 22.3567L16.1941 22.2732C16.2775 22.1062 16.361 21.8557 16.361 21.647C16.361 21.6053 16.361 21.5635 16.3193 21.5218V21.48L16.361 21.3548L16.2775 21.2713L16.2358 21.2296C16.1106 21.0626 15.9436 20.7286 15.9436 19.852C15.9436 19.5597 15.9853 19.351 16.0271 19.184L16.0688 19.0588C16.1106 18.8918 16.1523 18.7248 16.1523 18.4743C16.1523 18.1821 15.8183 17.8482 15.4426 17.5142L15.2757 17.389L15.1087 17.2637L15.0252 17.1802L14.4825 16.8045L14.3155 16.6793L14.1485 16.5541C14.1068 16.5123 14.1068 16.5123 14.065 16.4706L13.8563 16.3036L13.7311 16.1783L13.6058 16.0531L13.4806 15.9279L13.3971 15.8444L13.3554 15.8026C13.3554 15.8026 13.3554 15.8026 13.3554 15.7609C13.3136 15.7191 13.3971 15.6356 13.4388 15.5522L13.6893 15.2599L13.7728 15.1347C13.898 14.9677 13.9815 14.8007 13.8563 14.7172C13.6893 14.592 13.6058 14.6755 13.4806 14.8425L13.4388 14.926L13.3554 15.093C13.3554 15.1347 13.3136 15.1347 13.3136 15.1764C13.1466 15.4269 12.8544 15.6774 12.7292 15.7609C12.6874 15.7609 12.6874 15.7191 12.6874 15.6356V15.3017V15.1764C12.6874 14.9677 12.6457 14.759 12.5204 14.759C12.2282 14.759 12.1865 15.0512 12.2282 15.1764V15.2182C12.2282 15.2599 12.2282 15.2599 12.1447 15.2599H12.0612C11.936 15.2599 11.8108 15.3017 11.6855 15.4269L11.6438 15.5104C11.6438 15.5104 11.6438 15.5522 11.602 15.5522L11.5603 15.6356C11.4768 15.8026 11.3516 16.0114 11.3098 16.3453V16.3036V16.2618C11.2681 16.1366 11.2263 15.8444 11.3098 15.5939L11.3516 15.5104C11.3516 15.4687 11.3516 15.4687 11.2681 15.4687H11.1846H11.1428H11.0593H10.9341H10.7671L10.6001 15.5104L10.4332 15.5522L10.1409 15.5939L9.72349 15.6774C9.68174 15.6774 9.64 15.6774 9.59825 15.7191C9.47301 15.7609 9.43127 15.8026 9.43127 16.0114V16.1783V16.3453V16.5123C9.43127 16.6793 9.43127 16.7628 9.43127 16.888C9.43127 16.9298 9.38952 16.888 9.38952 16.8463V16.8045V16.7628V16.721C9.38952 16.721 9.38952 16.721 9.34778 16.721H9.30603H9.22254C9.05556 16.7628 8.80509 16.7628 8.80509 16.5123C8.80509 16.3036 8.84683 16.2618 8.93032 16.2201L8.97207 16.1783C9.01381 16.1366 9.05556 16.1366 9.05556 16.0531C9.05556 15.8026 8.88858 15.6774 8.67985 15.6774C8.55461 15.6774 8.47112 15.7609 8.38763 15.8444L8.30414 15.9279C8.1789 16.0531 8.05366 16.1783 7.88668 16.1783C7.51097 16.1783 7.46923 15.9279 7.46923 15.8026C7.46923 15.6774 7.51097 15.6356 7.51097 15.5522C7.51097 15.4687 7.42748 15.3852 7.34399 15.3852C7.30224 15.3852 7.38573 15.3434 7.51097 15.3434H7.55272L7.80319 15.3852C8.09541 15.4269 8.47112 15.3852 8.47112 15.1347C8.47112 15.0512 8.38763 15.0095 8.30414 15.0512H8.1789C8.13716 15.0512 8.13716 15.0512 8.09541 15.0512L7.92843 15.0095C7.7197 14.9677 7.42748 14.8842 7.42748 14.5503C7.42748 14.3833 7.59446 14.2998 7.67795 14.258H7.7197C7.7197 14.2163 7.76145 14.1328 7.76145 14.0493C7.76145 14.0076 7.76145 14.0076 7.84494 14.0493V13.9658L7.92843 14.0076L8.05366 14.0911L8.22065 14.258L8.34588 14.3833L8.38763 14.425L8.42937 14.4668C8.51287 14.592 8.6381 14.5503 8.67985 14.5085H8.72159C8.76334 14.4668 8.84683 14.3415 8.6381 14.2163C8.38763 14.0911 8.38763 13.9658 8.38763 13.7571C8.38763 13.5901 8.51287 13.5484 8.59636 13.5066H8.6381C8.67985 13.5066 8.72159 13.3396 8.67985 13.2561V13.2144C8.6381 13.0892 8.97207 13.3814 9.13905 13.7154C9.13905 13.7571 9.1808 13.7988 9.1808 13.8406V14.0493C9.1808 14.258 9.22254 14.425 9.47301 14.5503H9.55651H9.59825H9.64C9.64 14.5503 9.64 14.5503 9.68174 14.5503H9.72349H9.76523L9.84872 14.5085L9.97396 14.4668C9.97396 14.4668 10.0157 14.4668 10.0575 14.425L10.1409 14.3833L10.3914 14.2998L11.1428 14.0076L12.3117 13.5901C12.3952 13.5484 12.5622 13.4649 12.4787 13.3396C12.3952 13.1727 12.103 13.1309 11.6855 13.4231L11.6438 13.4649C11.5603 13.5484 11.5185 13.5066 11.5603 13.4231L11.602 13.3814L11.6438 13.2979C11.6438 13.2979 11.6438 13.2561 11.6855 13.2561L11.7273 13.1727C11.7273 13.1727 11.7273 13.1309 11.769 13.1309L11.8525 13.0474C11.8943 13.0057 11.8943 12.9639 11.936 12.9639L12.0195 12.8804C12.3117 12.5047 12.7709 12.129 13.1884 12.129C13.3554 12.129 13.3971 12.0455 13.3971 11.962V11.9203C13.3971 11.8368 13.3136 11.7533 13.0214 11.7533C12.6457 11.7533 12.1447 12.129 11.936 12.5047C11.936 12.5047 11.8943 12.5047 11.8525 12.5047L11.7273 12.4212C11.6438 12.3377 11.4768 12.296 11.2681 12.296C11.0176 12.296 10.8506 12.3377 10.7254 12.3377L10.6419 12.3795H10.5584H10.5167C10.4332 12.3795 10.7254 11.962 11.2263 11.962C11.3098 11.962 11.3098 11.8368 11.1428 11.7116L11.1011 11.6698C11.0176 11.6281 10.8924 11.4611 10.7671 11.3359L10.6419 11.1689L10.3914 10.8349C10.3497 10.7932 10.3497 10.7932 10.3079 10.7514C10.2244 10.6679 10.1409 10.7932 10.0157 11.0019L9.97396 11.0854L9.93222 11.2106L9.89047 11.3359L9.84872 11.4611C9.84872 11.5028 9.80698 11.4611 9.80698 11.4193V11.3776V11.3359V11.2941C9.80698 11.2524 9.76523 11.2524 9.76523 11.2524L9.68174 11.2106C9.55651 11.1689 9.43127 11.0854 9.43127 10.8349C9.43127 10.5427 9.59825 10.5009 9.76523 10.5427H9.80698L9.89047 10.5844C9.89047 10.5844 9.89047 10.5844 9.93222 10.5844C10.0992 10.6262 10.2662 10.4174 10.2244 10.2505C9.93222 10.0835 9.76523 9.87476 9.51476 9.87476H9.47301C9.1808 9.9165 8.76334 9.70777 8.76334 9.37381C8.76334 9.20683 8.84683 9.12333 8.93032 9.08159L9.01381 9.03984H9.05556C9.0973 8.9981 9.0973 8.83112 9.0973 8.78937C9.0973 8.78937 9.0973 8.78937 9.13905 8.78937L9.1808 8.83112L9.26429 8.87286L9.34778 8.95635L9.43127 9.03984L9.47301 9.08159L9.55651 9.16508C9.59825 9.20683 9.59825 9.20683 9.64 9.24857L9.76523 9.37381C9.89047 9.49904 9.93222 9.54079 10.0157 9.49905C10.0992 9.4573 10.1409 9.24857 9.84872 8.9981C9.55651 8.74762 9.59825 8.4554 9.72349 8.28842C9.72349 8.28842 9.76523 8.28842 9.80698 8.28842H9.93222C10.0575 8.28842 10.1827 8.28842 10.2244 8.20493C10.2244 8.12144 10.2662 8.16319 10.2662 8.20493V8.24668V8.33017L10.3079 8.41366V8.58064V8.74762L10.3497 8.83112V8.87286V8.95635C10.3497 9.20683 10.4332 9.24857 10.5167 9.24857C10.6001 9.24857 10.6836 9.20683 10.6419 8.83112C10.6001 8.49715 10.6836 8.41366 10.7671 8.37191L10.8089 8.33017C10.8924 8.28842 11.0176 8.28842 11.1011 8.37191C11.1846 8.4554 11.3516 8.33017 11.3516 8.20493V8.24668V8.28842V8.37191C11.3933 8.49715 11.3933 8.66413 11.2681 8.83112C11.2263 8.87286 11.2263 8.91461 11.1846 8.91461L11.0176 9.08159C10.8506 9.24857 10.7254 9.4573 10.8924 9.79126L10.9341 9.87476L12.6039 11.5863C12.6457 11.5863 12.6874 11.5446 12.6039 11.4611C12.5204 11.3359 12.5204 11.2106 12.6039 11.1271V11.0854L12.6457 11.1271L12.7292 11.1689L12.8127 11.2106C12.8127 11.2106 12.8544 11.2106 12.8544 11.2524L12.9379 11.2941C13.2301 11.4193 13.6476 11.5446 14.2738 11.4611C15.4009 11.3359 15.8601 10.5427 15.6931 10.3757L15.7766 10.4174L15.6931 10.5009L15.6514 10.5427L15.5679 10.6262C15.3591 10.7514 15.1087 10.9184 14.8582 10.9184C14.399 10.9184 14.1485 10.4592 14.232 10.167V10.1252L14.2738 10.167L14.3155 10.2087C14.399 10.2922 14.6077 10.4174 14.8582 10.4174C15.2339 10.4174 15.6514 9.95825 15.5679 9.70777C15.5679 9.66603 15.5261 9.66603 15.4426 9.70777L15.3591 9.66603L14.9417 9.79126L14.7747 9.83301C14.733 9.83301 14.733 9.83301 14.6912 9.87476L14.5242 9.9165C14.232 9.99999 13.8146 10.0417 13.3971 10.0417C12.0612 10.0417 11.8525 8.70588 12.8127 8.16319L12.7709 8.20493L12.7292 8.28842V8.33017V8.41366V8.49715V8.58064V8.66413C12.6457 9.12333 12.7709 9.70777 13.8563 9.70777C14.065 9.70777 14.2738 9.70777 14.4407 9.66603L14.6077 9.62428C14.6495 9.62428 14.733 9.62428 14.7747 9.58254L14.9417 9.54079L15.0669 9.49905L15.1922 9.4573L15.2757 9.41555L15.3591 9.37381L15.4844 9.33206V9.29032V9.24857C15.4426 9.12333 15.2757 8.83112 14.8999 8.83112C14.5242 8.83112 14.3572 9.12333 14.2738 9.24857L14.232 9.29032V9.33206L14.1903 9.29032L14.1068 9.37381C13.9815 9.29032 13.7728 9.03984 13.8563 8.74762C13.8563 8.70588 13.898 8.70588 13.9398 8.70588H14.0233H14.1068C14.232 8.66413 14.3572 8.62239 14.3572 8.4554C14.3572 8.37191 14.3155 8.33017 14.2738 8.33017H14.232C14.1903 8.33017 14.1485 8.37191 14.1068 8.41366L14.065 8.49715C14.0233 8.5389 14.0233 8.58064 13.9398 8.58064C13.7728 8.58064 13.7728 8.07969 14.1068 8.07969H14.1485C14.232 8.07969 14.3572 8.07969 14.399 7.9962V7.95446C14.399 7.82922 14.6912 7.70398 15.3174 7.66224H15.5261C15.6096 7.66224 15.7349 7.66224 15.8601 7.66224C16.3193 7.66224 16.6115 7.74573 16.7785 7.78748L16.862 7.82922L16.9037 7.87097L16.9455 7.91271L16.9872 7.95446V7.91271C17.029 7.74573 17.1542 7.537 17.4464 7.537ZM13.0214 17.1385H13.5641H13.9398H14.1903H14.3572H14.4825H14.566H14.6077H14.6495C14.6912 17.1385 14.6912 17.1802 14.6912 17.222V17.2637C14.6912 17.3055 14.6912 17.389 14.8165 17.4307C14.9834 17.4725 15.4844 17.8899 15.4844 18.0986C15.4844 18.1404 15.4426 18.2239 15.4009 18.2656L15.2757 18.4326C15.2339 18.5161 15.1922 18.5996 15.2757 18.7666C15.4844 19.0588 15.6514 19.0588 15.7766 19.0588H15.7349C15.7349 19.0588 15.7349 19.0588 15.6931 19.0588L15.6514 19.1005C15.5261 19.1423 15.2757 19.184 14.8999 19.184H14.8165C14.6495 19.184 14.4825 19.1423 14.3155 19.1005L13.8563 19.017C13.6058 18.9753 13.3971 18.9335 13.1466 18.9753H13.1049H13.0214C12.5622 19.0588 12.27 19.4762 12.4787 20.8121V20.9373C12.4787 20.9791 12.5622 21.0208 12.7292 21.0208C12.9796 21.0208 13.6058 21.3131 13.9815 21.9392L13.8146 21.8557V21.7723L13.6893 21.7305L13.5641 21.6888C13.2301 21.5218 12.8962 21.3965 12.7709 21.6053C12.6874 21.7723 12.7292 21.8975 12.8544 21.981C12.8962 21.981 12.8127 22.0227 12.6874 22.0645L12.5622 22.1062L12.3535 22.1897H12.1447L11.7273 22.3149L10.9759 22.5237C10.8506 22.5654 10.8089 22.6489 11.0593 22.8159L11.1011 22.8576L11.2263 22.9411L11.3516 23.0246L11.3933 23.0664C11.4351 23.1081 11.4768 23.1499 11.4351 23.1499H11.3098C11.1846 23.1499 11.0593 23.1499 11.0593 23.2333C11.0593 23.3168 11.0176 23.5256 10.8089 23.5256C10.6001 23.5256 10.4749 23.4003 10.4749 23.2333V23.1081V23.0246C10.4749 22.8576 10.3914 22.7324 10.2244 22.7324C9.97396 22.7324 9.80698 22.9829 9.80698 23.4421C9.80698 23.776 9.47301 23.8595 9.34778 23.8595C9.22254 23.8595 9.0973 23.8178 9.0973 23.6091C9.0973 23.5673 9.01381 23.5673 8.93032 23.5673H8.84683C8.80508 23.5673 8.84683 23.5256 8.93032 23.4421L9.01381 23.4003L9.13905 23.3168L9.26429 23.2333L9.51476 23.0246C9.59825 22.9829 9.59825 22.8159 9.55651 22.7741L9.51476 22.7324C9.43127 22.6907 9.34778 22.6489 9.1808 22.7741C9.01381 22.9411 8.80508 23.0664 8.6381 23.0664C8.47112 23.0664 8.30414 22.8994 8.30414 22.7324V22.6907V22.5237C8.30414 22.4402 8.30414 22.3149 8.1789 22.2732L8.13716 22.2315C8.09541 22.1897 8.09541 22.1897 8.1789 22.1897H8.26239H8.55461H8.88858H9.01381H9.13905C9.30603 22.1897 9.47301 22.148 9.47301 22.1062C9.47301 21.8975 9.26429 21.8557 9.1808 21.8557H9.05556C8.84683 21.8557 8.55461 21.8557 8.55461 21.5635C8.55461 21.48 8.59636 21.4383 8.6381 21.3965H8.67985C8.67985 21.3548 8.72159 21.3548 8.72159 21.3131C8.72159 21.2296 8.59636 21.2296 8.55461 21.2296L8.59636 21.1878L8.6381 21.1461C8.76334 21.1043 9.01381 21.0208 9.26429 21.2296C9.30603 21.2713 9.38952 21.3548 9.43127 21.3965L9.51476 21.5218L9.59825 21.647C9.72349 21.814 9.84872 21.9392 10.0575 21.9392H10.1409C10.5584 21.8975 11.5603 21.5218 11.5603 20.3946C11.5603 20.0607 11.4768 19.7685 11.3933 19.518L11.3516 19.3928L11.3098 19.2675L11.1846 19.017C11.1846 18.9753 11.1846 18.9753 11.1846 18.9753C11.1846 18.9335 11.1846 18.9336 11.2263 18.9336H11.3098C11.3933 18.9336 11.5185 18.8918 11.5185 18.7248C11.5185 18.3909 9.51476 18.3491 8.88858 18.9753V18.9336V18.8918V18.8501V18.8083L8.93032 18.7248C9.05556 18.5161 9.34778 18.2239 10.0157 18.2239C10.1827 18.2239 10.3079 18.2656 10.3914 18.2656L10.5167 18.3074C10.6419 18.3491 10.7254 18.3491 10.8506 18.3074C10.8924 18.3074 10.8924 18.2656 10.8506 18.2239L10.6836 18.0151C10.5584 17.8899 10.4332 17.7647 10.4749 17.5142L10.5167 17.5559C10.6419 17.6812 10.9341 17.9317 11.2681 17.9317C11.3098 17.9317 11.3098 17.9317 11.3516 17.8899L11.3933 17.8482L11.4768 17.7229L11.5603 17.6394L11.6438 17.5559C11.8943 17.389 12.3117 17.1385 13.0214 17.1385ZM15.0669 14.6338C14.9834 14.6338 14.8999 14.6755 14.8999 14.759V14.8007V14.8425V14.8842C14.8999 14.8842 14.8999 14.926 14.8582 14.926L14.8165 15.0095L14.7747 15.093C14.6495 15.2599 14.4825 15.4687 14.1068 15.6356C14.065 15.6774 14.0233 15.7609 14.065 15.8444C14.1068 15.8861 14.1485 15.9279 14.232 15.9279H14.2738C14.8165 15.6774 15.0669 15.3434 15.1504 15.093L15.1922 15.0095V14.9677V14.926V14.8425V14.8007C15.1922 14.7172 15.1504 14.6338 15.0669 14.6338ZM16.2358 14.5503C16.1523 14.5503 16.1106 14.592 16.0688 14.6755V14.759V14.8007V14.8425C16.0271 15.0512 15.9018 15.4269 15.4426 15.6774C15.4009 15.7191 15.3591 15.8026 15.4009 15.8861C15.4426 15.9279 15.4844 15.9696 15.5679 15.9696H15.6096C16.1106 15.7191 16.3193 15.3017 16.4028 15.0095V14.926V14.8842V14.8007V14.759V14.7172C16.361 14.592 16.3193 14.5503 16.2358 14.5503ZM14.3572 12.63C14.3155 12.7135 14.3572 12.7969 14.399 12.8804L14.4407 12.9222C14.4825 12.9639 14.6077 13.0892 14.6495 13.2561C14.733 13.5484 14.6495 13.9658 14.399 14.3833C14.3572 14.425 14.3572 14.5503 14.4407 14.592C14.4825 14.6338 14.4825 14.6338 14.5242 14.6338C14.566 14.6338 14.6495 14.592 14.6912 14.5503C14.9834 14.0493 15.1087 13.5901 15.0252 13.2144V13.1309C14.9834 12.8804 14.8165 12.7552 14.733 12.6717L14.6912 12.63L14.566 12.5882C14.4825 12.5465 14.3572 12.5465 14.3572 12.63ZM13.5641 12.7552L13.4806 12.7969L13.4388 12.8387L13.3971 12.8804L13.3136 12.9639C13.1049 13.1727 12.8962 13.5484 12.8127 14.1746C12.8127 14.258 12.8544 14.3415 12.9379 14.3415H12.9796H13.0214C13.0631 14.3415 13.1466 14.2998 13.1884 14.2163V14.1746C13.2301 13.5901 13.4806 13.2561 13.6476 13.0892L13.6893 13.0474L13.7311 13.0057C13.8146 12.9639 13.8146 12.8387 13.7728 12.7969C13.7311 12.7552 13.6476 12.7552 13.5641 12.7552ZM15.5261 11.6698C15.4844 11.7533 15.4844 11.8368 15.5679 11.8785L15.6096 11.9203L15.6514 11.962L15.6931 12.0038C15.6931 12.0038 15.6931 12.0038 15.6931 12.0455L15.7349 12.0873C15.8601 12.296 15.9853 12.63 15.8601 13.2561L15.8183 13.3814C15.7766 13.4649 15.8183 13.5066 15.9018 13.5484H15.9436H15.9853C16.0271 13.5484 16.1106 13.5066 16.1523 13.4231C16.361 12.5047 16.0688 12.0038 15.9018 11.7951L15.8601 11.7533L15.8183 11.7116L15.7766 11.6281L15.7349 11.5863C15.6514 11.5863 15.5679 11.5863 15.5261 11.6698ZM22.1637 8.24668L22.2472 8.41366L22.2889 8.49715C22.4141 8.74762 22.6646 9.03984 22.9151 8.9981C22.9986 8.9981 22.9986 8.87286 22.9568 8.74762L22.9151 8.58064L22.8734 8.49715V8.41366C22.8734 8.37191 22.8734 8.37191 22.8734 8.33017L22.9568 8.41366L23.0403 8.49715L23.1238 8.58064C23.2491 8.70588 23.3743 8.83112 23.4995 8.91461C23.75 9.08159 23.7918 9.58254 23.6665 9.87476C23.5413 10.0835 23.3326 10.2922 23.2908 10.5009V10.5427C23.2491 10.6679 23.1656 10.8349 23.0403 11.0854L22.9568 11.2524C22.8734 11.3776 22.8316 11.4611 22.7064 11.5863L22.5394 11.7533C22.4142 11.9203 22.2472 12.0873 22.0802 12.2543L21.9967 12.3377L21.5792 11.962L21.7045 11.8368L21.8297 11.7116L21.9549 11.5863L21.9967 11.5446L22.1219 11.4193L22.2472 11.2941C22.5394 10.9601 22.7899 10.6262 22.7481 10.3757H22.7064L22.6646 10.334C22.6646 10.334 22.6646 10.334 22.6229 10.334L22.5394 10.2922C22.3724 10.167 22.1219 9.9165 22.1637 9.54079L22.2054 9.62428C22.2054 9.62428 22.2054 9.62428 22.2472 9.66603L22.2889 9.74952C22.4141 9.9165 22.6229 10.0835 22.7481 9.95825C22.9568 9.83301 22.7899 9.49904 22.5394 9.24857L22.4559 9.16508V9.03984L22.4142 8.9981C22.2472 8.83112 22.1637 8.58064 22.1637 8.41366V8.33017V8.24668ZM16.2358 9.62428C16.1941 9.70777 16.2358 9.79126 16.3193 9.83301C16.7785 9.99999 17.196 10.2505 17.2377 10.3757H17.1959C17.1959 10.3757 17.1959 10.3757 17.1542 10.3757H17.1125H17.0707H16.9872H16.9455H16.8202H16.6115C16.5698 10.3757 16.4863 10.4174 16.4445 10.4592C16.4028 10.5009 16.4445 10.5427 16.4445 10.6262L16.4863 10.7097L16.528 10.7514V10.7932C16.528 10.7932 16.528 10.7932 16.528 10.8349V10.9184V10.9601V11.0436V11.0854V11.2106C16.528 11.3776 16.528 11.5863 16.4863 11.7951C16.4863 11.8785 16.528 11.9203 16.6533 11.962H16.695H16.7367C16.7785 11.962 16.862 11.8785 16.862 11.7951C16.862 11.7116 16.862 11.6281 16.862 11.5863V11.3776C16.862 11.3359 16.862 11.3359 16.862 11.2941V11.1271C16.862 10.9184 16.8202 10.7932 16.7785 10.6679C17.029 10.6679 17.2377 10.6262 17.3629 10.5009C17.4047 10.4592 17.4464 10.3757 17.4464 10.2922C17.4464 9.99999 17.029 9.74952 16.695 9.58254L16.5698 9.54079L16.4445 9.49905L16.361 9.4573H16.3193C16.361 9.49904 16.2775 9.54079 16.2358 9.62428ZM15.8601 7.9962H15.1087C14.9834 7.9962 14.9834 8.03795 14.9417 8.07969C14.9417 8.16319 14.9834 8.20493 14.9834 8.24668L15.0252 8.28842H15.4426H15.4844C15.5261 8.28842 15.6096 8.28842 15.6096 8.33017C15.6096 8.37191 15.4844 8.41366 15.3591 8.4554H15.2757H15.1504L15.1922 8.49715C15.2339 8.58064 15.3174 8.62239 15.4844 8.62239C15.7349 8.62239 15.8183 8.41366 15.8183 8.24668V8.20493V8.16319C15.8601 8.16319 15.9853 8.16319 15.9853 8.07969C16.0271 8.03795 15.9436 7.9962 15.8601 7.9962ZM15.6931 5.7002L15.8183 5.74194L15.9018 5.82543L15.9436 5.86718L16.0688 5.90892C16.2358 6.03416 16.4028 6.20114 16.4028 6.36812C16.4028 6.57685 16.1941 6.66034 16.0688 6.70209H16.0271C16.1106 6.91082 16.2775 6.99431 16.361 7.03605H16.4028H16.7367C16.9872 7.03605 16.9872 6.82733 16.9872 6.74384V6.66034H16.9455C16.862 6.66034 16.695 6.57685 16.695 6.40987C16.695 6.20114 16.9872 6.03416 17.2794 5.95067L17.3629 5.90892L17.4464 5.86718L17.5717 5.82543L17.4882 6.1594H17.4464C17.3629 6.1594 17.2794 6.24289 17.2794 6.36812C17.2794 6.40987 17.3212 6.45162 17.3629 6.49336H17.4047L17.1542 7.32827H14.399L14.1903 6.53511C14.232 6.49336 14.3155 6.45162 14.3155 6.36812C14.3155 6.24289 14.232 6.1594 14.1485 6.1594H14.1068L13.9815 5.78369C14.232 5.82543 14.8582 6.07591 14.8582 6.36812C14.8582 6.57685 14.6912 6.66034 14.6077 6.66034H14.566C14.566 6.91082 14.733 6.99431 14.8165 6.99431H14.8582H14.8999H15.2757C15.4844 6.99431 15.5261 6.74384 15.5261 6.66034V6.6186H15.4844H15.4009C15.2757 6.57685 15.1504 6.53511 15.1504 6.40987C15.1504 6.20114 15.3174 6.03416 15.4844 5.86718L15.5679 5.78369L15.6514 5.7002H15.6931ZM15.7766 6.20114C15.6514 6.20114 15.5679 6.28463 15.5679 6.40987C15.5679 6.53511 15.6514 6.6186 15.7766 6.6186C15.9018 6.6186 15.9853 6.53511 15.9853 6.40987C15.9853 6.28463 15.9018 6.20114 15.7766 6.20114Z" fill="#FAB413"/>
</svg>
